<?xml version="1.0" encoding="UTF-8"?>
<svg xmlns="http://www.w3.org/2000/svg" width="160" height="160" viewBox="0 0 160 160" fill="none">
  <defs>
    <linearGradient id="bg" x1="18" y1="10" x2="145" y2="150" gradientUnits="userSpaceOnUse">
      <stop stop-color="#2b1907"/>
      <stop offset="1" stop-color="#b45309"/>
    </linearGradient>
    <radialGradient id="shine" cx="0" cy="0" r="1" gradientUnits="userSpaceOnUse" gradientTransform="translate(44 36) rotate(42) scale(66)">
      <stop stop-color="white" stop-opacity=".44"/>
      <stop offset="1" stop-color="white" stop-opacity="0"/>
    </radialGradient>
    <filter id="drop" x="0" y="0" width="160" height="160" filterUnits="userSpaceOnUse" color-interpolation-filters="sRGB">
      <feDropShadow dx="0" dy="6" stdDeviation="5" flood-color="rgba(2,6,23,.34)"/>
    </filter>
    <filter id="soft" x="0" y="0" width="160" height="160" filterUnits="userSpaceOnUse" color-interpolation-filters="sRGB">
      <feGaussianBlur stdDeviation="7"/>
    </filter>
  </defs>
  <rect x="6" y="6" width="148" height="148" rx="34" fill="url(#bg)"/>
  <ellipse cx="118" cy="28" rx="26" ry="14" fill="#ffffff" fill-opacity=".28" filter="url(#soft)"/>
  <rect x="6" y="6" width="148" height="148" rx="34" fill="url(#shine)"/>
  <g filter="url(#drop)">

    <g transform="translate(27 24)">
      <path d="M30 12h44l8 12v74H22V24l8-12Z" fill="#f8fafc"/>
      <rect x="26" y="32" width="52" height="38" rx="8" fill="#f59e0b"/>
      <rect x="30" y="36" width="44" height="30" rx="6" fill="#fde68a"/>
      <path d="M52 43c8 0 14 6 14 13s-6 13-14 13-14-6-14-13 6-13 14-13Z" fill="#f97316"/>
      <text x="52" y="61" text-anchor="middle" font-size="13" font-family="Arial" font-weight="700" fill="#fff">G</text>
      <rect x="26" y="74" width="52" height="16" rx="8" fill="#fb923c"/>
    </g>
  </g>
</svg>