<?xml version="1.0" encoding="UTF-8"?>
<svg xmlns="http://www.w3.org/2000/svg" width="160" height="160" viewBox="0 0 160 160" fill="none">
  <defs>
    <linearGradient id="bg" x1="18" y1="10" x2="145" y2="150" gradientUnits="userSpaceOnUse">
      <stop stop-color="#0b1020"/>
      <stop offset="1" stop-color="#14532d"/>
    </linearGradient>
    <radialGradient id="shine" cx="0" cy="0" r="1" gradientUnits="userSpaceOnUse" gradientTransform="translate(44 36) rotate(42) scale(66)">
      <stop stop-color="white" stop-opacity=".44"/>
      <stop offset="1" stop-color="white" stop-opacity="0"/>
    </radialGradient>
    <filter id="drop" x="0" y="0" width="160" height="160" filterUnits="userSpaceOnUse" color-interpolation-filters="sRGB">
      <feDropShadow dx="0" dy="6" stdDeviation="5" flood-color="rgba(2,6,23,.34)"/>
    </filter>
    <filter id="soft" x="0" y="0" width="160" height="160" filterUnits="userSpaceOnUse" color-interpolation-filters="sRGB">
      <feGaussianBlur stdDeviation="7"/>
    </filter>
  </defs>
  <rect x="6" y="6" width="148" height="148" rx="34" fill="url(#bg)"/>
  <ellipse cx="118" cy="28" rx="26" ry="14" fill="#ffffff" fill-opacity=".28" filter="url(#soft)"/>
  <rect x="6" y="6" width="148" height="148" rx="34" fill="url(#shine)"/>
  <g filter="url(#drop)">

    <g transform="translate(28 26) rotate(-20 50 58)">
      <rect x="26" y="20" width="54" height="24" rx="11" fill="#0f172a"/>
      <rect x="34" y="24" width="36" height="16" rx="8" fill="#22c55e"/>
      <rect x="34" y="44" width="36" height="52" rx="10" fill="#e5e7eb"/>
      <rect x="40" y="53" width="24" height="34" rx="6" fill="#86efac"/>
      <path d="M36 96h32l-16 26-16-26Z" fill="#374151"/>
    </g>
  </g>
</svg>