<?xml version="1.0" encoding="UTF-8"?>
<svg xmlns="http://www.w3.org/2000/svg" width="160" height="160" viewBox="0 0 160 160" fill="none">
  <defs>
    <linearGradient id="bg" x1="18" y1="10" x2="145" y2="150" gradientUnits="userSpaceOnUse">
      <stop stop-color="#3f0018"/>
      <stop offset="1" stop-color="#be123c"/>
    </linearGradient>
    <radialGradient id="shine" cx="0" cy="0" r="1" gradientUnits="userSpaceOnUse" gradientTransform="translate(44 36) rotate(42) scale(66)">
      <stop stop-color="white" stop-opacity=".44"/>
      <stop offset="1" stop-color="white" stop-opacity="0"/>
    </radialGradient>
    <filter id="drop" x="0" y="0" width="160" height="160" filterUnits="userSpaceOnUse" color-interpolation-filters="sRGB">
      <feDropShadow dx="0" dy="6" stdDeviation="5" flood-color="rgba(2,6,23,.34)"/>
    </filter>
    <filter id="soft" x="0" y="0" width="160" height="160" filterUnits="userSpaceOnUse" color-interpolation-filters="sRGB">
      <feGaussianBlur stdDeviation="7"/>
    </filter>
  </defs>
  <rect x="6" y="6" width="148" height="148" rx="34" fill="url(#bg)"/>
  <ellipse cx="118" cy="28" rx="26" ry="14" fill="#ffffff" fill-opacity=".28" filter="url(#soft)"/>
  <rect x="6" y="6" width="148" height="148" rx="34" fill="url(#shine)"/>
  <g filter="url(#drop)">

    <g transform="translate(26 22)">
      <ellipse cx="54" cy="54" rx="30" ry="28" fill="#f43f5e"/>
      <ellipse cx="39" cy="53" rx="16" ry="14" fill="#fb7185"/>
      <ellipse cx="66" cy="48" rx="15" ry="13" fill="#e11d48"/>
      <path d="M54 30c9 4 14 12 12 20-2 8-10 13-20 12-5-1-10-5-12-10 6-1 10-3 13-7 2-4 4-9 7-15Z" fill="#fecdd3" fill-opacity=".65"/>
      <path d="M53 77v34" stroke="#15803d" stroke-width="7" stroke-linecap="round"/>
      <path d="M53 95c-14-9-20-8-26-2 8 7 14 8 25 7" fill="#22c55e"/>
      <path d="M53 100c11-7 16-6 23 1-8 6-13 7-23 6" fill="#22c55e"/>
    </g>
  </g>
</svg>