<?xml version="1.0" encoding="UTF-8"?>
<svg xmlns="http://www.w3.org/2000/svg" width="160" height="160" viewBox="0 0 160 160" fill="none">
  <defs>
    <linearGradient id="bg" x1="18" y1="10" x2="145" y2="150" gradientUnits="userSpaceOnUse">
      <stop stop-color="#06283d"/>
      <stop offset="1" stop-color="#0f766e"/>
    </linearGradient>
    <radialGradient id="shine" cx="0" cy="0" r="1" gradientUnits="userSpaceOnUse" gradientTransform="translate(44 36) rotate(42) scale(66)">
      <stop stop-color="white" stop-opacity=".44"/>
      <stop offset="1" stop-color="white" stop-opacity="0"/>
    </radialGradient>
    <filter id="drop" x="0" y="0" width="160" height="160" filterUnits="userSpaceOnUse" color-interpolation-filters="sRGB">
      <feDropShadow dx="0" dy="6" stdDeviation="5" flood-color="rgba(2,6,23,.34)"/>
    </filter>
    <filter id="soft" x="0" y="0" width="160" height="160" filterUnits="userSpaceOnUse" color-interpolation-filters="sRGB">
      <feGaussianBlur stdDeviation="7"/>
    </filter>
  </defs>
  <rect x="6" y="6" width="148" height="148" rx="34" fill="url(#bg)"/>
  <ellipse cx="118" cy="28" rx="26" ry="14" fill="#ffffff" fill-opacity=".28" filter="url(#soft)"/>
  <rect x="6" y="6" width="148" height="148" rx="34" fill="url(#shine)"/>
  <g filter="url(#drop)">

    <g transform="translate(20 30)">
      <path d="M9 60c14-24 32-36 56-36 22 0 41 11 54 34-14 17-33 25-57 25-22 0-40-8-53-23Z" fill="#0ea5e9"/>
      <path d="M20 63c10-13 24-20 42-20 17 0 31 7 40 20-10 8-23 12-40 12-17 0-31-4-42-12Z" fill="#67e8f9"/>
      <circle cx="55" cy="54" r="7" fill="#e0f2fe"/>
      <circle cx="75" cy="58" r="5" fill="#cffafe"/>
    </g>
  </g>
</svg>