<?xml version="1.0" encoding="UTF-8"?>
<svg xmlns="http://www.w3.org/2000/svg" width="160" height="160" viewBox="0 0 160 160" fill="none">
  <defs>
    <linearGradient id="bg" x1="18" y1="10" x2="145" y2="150" gradientUnits="userSpaceOnUse">
      <stop stop-color="#0a1f3f"/>
      <stop offset="1" stop-color="#1d4ed8"/>
    </linearGradient>
    <radialGradient id="shine" cx="0" cy="0" r="1" gradientUnits="userSpaceOnUse" gradientTransform="translate(44 36) rotate(42) scale(66)">
      <stop stop-color="white" stop-opacity=".44"/>
      <stop offset="1" stop-color="white" stop-opacity="0"/>
    </radialGradient>
    <filter id="drop" x="0" y="0" width="160" height="160" filterUnits="userSpaceOnUse" color-interpolation-filters="sRGB">
      <feDropShadow dx="0" dy="6" stdDeviation="5" flood-color="rgba(2,6,23,.34)"/>
    </filter>
    <filter id="soft" x="0" y="0" width="160" height="160" filterUnits="userSpaceOnUse" color-interpolation-filters="sRGB">
      <feGaussianBlur stdDeviation="7"/>
    </filter>
  </defs>
  <rect x="6" y="6" width="148" height="148" rx="34" fill="url(#bg)"/>
  <ellipse cx="118" cy="28" rx="26" ry="14" fill="#ffffff" fill-opacity=".28" filter="url(#soft)"/>
  <rect x="6" y="6" width="148" height="148" rx="34" fill="url(#shine)"/>
  <g filter="url(#drop)">

    <g transform="translate(24 20)">
      <rect x="26" y="18" width="8" height="28" rx="4" fill="#78350f"/>
      <rect x="76" y="18" width="8" height="28" rx="4" fill="#78350f"/>
      <rect x="20" y="16" width="70" height="8" rx="4" fill="#92400e"/>
      <ellipse cx="55" cy="58" rx="40" ry="12" fill="#475569"/>
      <rect x="15" y="58" width="80" height="28" rx="10" fill="#64748b"/>
      <ellipse cx="55" cy="58" rx="30" ry="7" fill="#38bdf8"/>
      <rect x="50" y="44" width="10" height="14" rx="4" fill="#1e293b"/>
      <path d="M55 44c7-7 15-8 22-3" stroke="#1e293b" stroke-width="3" stroke-linecap="round"/>
    </g>
  </g>
</svg>