<?xml version="1.0" encoding="UTF-8"?>
<svg xmlns="http://www.w3.org/2000/svg" width="160" height="160" viewBox="0 0 160 160" fill="none">
  <defs>
    <linearGradient id="bg" x1="18" y1="10" x2="145" y2="150" gradientUnits="userSpaceOnUse">
      <stop stop-color="#0f172a"/>
      <stop offset="1" stop-color="#1f2937"/>
    </linearGradient>
    <radialGradient id="shine" cx="0" cy="0" r="1" gradientUnits="userSpaceOnUse" gradientTransform="translate(44 36) rotate(42) scale(66)">
      <stop stop-color="white" stop-opacity=".44"/>
      <stop offset="1" stop-color="white" stop-opacity="0"/>
    </radialGradient>
    <filter id="drop" x="0" y="0" width="160" height="160" filterUnits="userSpaceOnUse" color-interpolation-filters="sRGB">
      <feDropShadow dx="0" dy="6" stdDeviation="5" flood-color="rgba(2,6,23,.34)"/>
    </filter>
    <filter id="soft" x="0" y="0" width="160" height="160" filterUnits="userSpaceOnUse" color-interpolation-filters="sRGB">
      <feGaussianBlur stdDeviation="7"/>
    </filter>
  </defs>
  <rect x="6" y="6" width="148" height="148" rx="34" fill="url(#bg)"/>
  <ellipse cx="118" cy="28" rx="26" ry="14" fill="#ffffff" fill-opacity=".28" filter="url(#soft)"/>
  <rect x="6" y="6" width="148" height="148" rx="34" fill="url(#shine)"/>
  <g filter="url(#drop)">

    <g transform="translate(23 24)">
      <rect x="14" y="16" width="86" height="58" rx="7" fill="#14532d"/>
      <rect x="18" y="20" width="78" height="50" rx="5" fill="#15803d"/>
      <rect x="11" y="74" width="92" height="9" rx="4" fill="#c0841a"/>
      <rect x="54" y="83" width="7" height="31" rx="3" fill="#b45309"/>
      <rect x="40" y="109" width="36" height="8" rx="4" fill="#78350f"/>
      <line x1="34" y1="35" x2="80" y2="35" stroke="#dcfce7" stroke-width="4" stroke-linecap="round"/>
      <line x1="28" y1="47" x2="74" y2="47" stroke="#dcfce7" stroke-width="4" stroke-linecap="round"/>
    </g>
  </g>
</svg>