<?xml version="1.0" encoding="UTF-8"?>
<svg xmlns="http://www.w3.org/2000/svg" width="160" height="160" viewBox="0 0 160 160" fill="none">
  <defs>
    <linearGradient id="bg" x1="18" y1="10" x2="145" y2="150" gradientUnits="userSpaceOnUse">
      <stop stop-color="#2c0e0a"/>
      <stop offset="1" stop-color="#9a3412"/>
    </linearGradient>
    <radialGradient id="shine" cx="0" cy="0" r="1" gradientUnits="userSpaceOnUse" gradientTransform="translate(44 36) rotate(42) scale(66)">
      <stop stop-color="white" stop-opacity=".44"/>
      <stop offset="1" stop-color="white" stop-opacity="0"/>
    </radialGradient>
    <filter id="drop" x="0" y="0" width="160" height="160" filterUnits="userSpaceOnUse" color-interpolation-filters="sRGB">
      <feDropShadow dx="0" dy="6" stdDeviation="5" flood-color="rgba(2,6,23,.34)"/>
    </filter>
    <filter id="soft" x="0" y="0" width="160" height="160" filterUnits="userSpaceOnUse" color-interpolation-filters="sRGB">
      <feGaussianBlur stdDeviation="7"/>
    </filter>
  </defs>
  <rect x="6" y="6" width="148" height="148" rx="34" fill="url(#bg)"/>
  <ellipse cx="118" cy="28" rx="26" ry="14" fill="#ffffff" fill-opacity=".28" filter="url(#soft)"/>
  <rect x="6" y="6" width="148" height="148" rx="34" fill="url(#shine)"/>
  <g filter="url(#drop)">

    <g transform="translate(22 32)">
      <rect x="20" y="48" width="78" height="15" rx="7" fill="#7c2d12"/>
      <rect x="16" y="40" width="86" height="13" rx="6" fill="#16a34a"/>
      <rect x="22" y="64" width="74" height="14" rx="7" fill="#f59e0b"/>
      <path d="M18 40c0-18 15-32 41-32s41 14 41 32H18Z" fill="#fb923c"/>
      <circle cx="41" cy="25" r="2" fill="#fef3c7"/>
      <circle cx="55" cy="20" r="2" fill="#fef3c7"/>
      <circle cx="70" cy="25" r="2" fill="#fef3c7"/>
    </g>
  </g>
</svg>