<?xml version="1.0" encoding="UTF-8"?>
<svg xmlns="http://www.w3.org/2000/svg" width="160" height="160" viewBox="0 0 160 160" fill="none">
  <defs>
    <linearGradient id="bg" x1="18" y1="10" x2="145" y2="150" gradientUnits="userSpaceOnUse">
      <stop stop-color="#3d0b12"/>
      <stop offset="1" stop-color="#c2410c"/>
    </linearGradient>
    <radialGradient id="shine" cx="0" cy="0" r="1" gradientUnits="userSpaceOnUse" gradientTransform="translate(44 36) rotate(42) scale(66)">
      <stop stop-color="white" stop-opacity=".44"/>
      <stop offset="1" stop-color="white" stop-opacity="0"/>
    </radialGradient>
    <filter id="drop" x="0" y="0" width="160" height="160" filterUnits="userSpaceOnUse" color-interpolation-filters="sRGB">
      <feDropShadow dx="0" dy="6" stdDeviation="5" flood-color="rgba(2,6,23,.34)"/>
    </filter>
    <filter id="soft" x="0" y="0" width="160" height="160" filterUnits="userSpaceOnUse" color-interpolation-filters="sRGB">
      <feGaussianBlur stdDeviation="7"/>
    </filter>
  </defs>
  <rect x="6" y="6" width="148" height="148" rx="34" fill="url(#bg)"/>
  <ellipse cx="118" cy="28" rx="26" ry="14" fill="#ffffff" fill-opacity=".28" filter="url(#soft)"/>
  <rect x="6" y="6" width="148" height="148" rx="34" fill="url(#shine)"/>
  <g filter="url(#drop)">

    <g transform="translate(25 24)">
      <circle cx="55" cy="56" r="38" fill="#f59e0b"/>
      <circle cx="55" cy="56" r="18" fill="#7c3aed" fill-opacity=".2"/>
      <path d="M23 48c5-15 19-25 34-25 17 0 31 10 37 26-4 3-7 8-7 14 0 7 4 13 10 16-6 9-18 15-30 15-20 0-38-13-44-32 3-3 5-8 5-14 0-6-2-11-5-14Z" fill="#fb7185"/>
      <rect x="37" y="34" width="5" height="2" rx="1" fill="#fff" transform="rotate(25 37 34)"/>
      <rect x="70" y="44" width="5" height="2" rx="1" fill="#fff" transform="rotate(-22 70 44)"/>
      <rect x="54" y="71" width="5" height="2" rx="1" fill="#fff" transform="rotate(35 54 71)"/>
      <rect x="47" y="85" width="5" height="2" rx="1" fill="#fff" transform="rotate(-28 47 85)"/>
    </g>
  </g>
</svg>