<?xml version="1.0" encoding="UTF-8"?>
<svg xmlns="http://www.w3.org/2000/svg" width="160" height="160" viewBox="0 0 160 160" fill="none">
  <defs>
    <linearGradient id="bg" x1="18" y1="10" x2="145" y2="150" gradientUnits="userSpaceOnUse">
      <stop stop-color="#2f093f"/>
      <stop offset="1" stop-color="#7e22ce"/>
    </linearGradient>
    <radialGradient id="shine" cx="0" cy="0" r="1" gradientUnits="userSpaceOnUse" gradientTransform="translate(44 36) rotate(42) scale(66)">
      <stop stop-color="white" stop-opacity=".44"/>
      <stop offset="1" stop-color="white" stop-opacity="0"/>
    </radialGradient>
    <filter id="drop" x="0" y="0" width="160" height="160" filterUnits="userSpaceOnUse" color-interpolation-filters="sRGB">
      <feDropShadow dx="0" dy="6" stdDeviation="5" flood-color="rgba(2,6,23,.34)"/>
    </filter>
    <filter id="soft" x="0" y="0" width="160" height="160" filterUnits="userSpaceOnUse" color-interpolation-filters="sRGB">
      <feGaussianBlur stdDeviation="7"/>
    </filter>
  </defs>
  <rect x="6" y="6" width="148" height="148" rx="34" fill="url(#bg)"/>
  <ellipse cx="118" cy="28" rx="26" ry="14" fill="#ffffff" fill-opacity=".28" filter="url(#soft)"/>
  <rect x="6" y="6" width="148" height="148" rx="34" fill="url(#shine)"/>
  <g filter="url(#drop)">

    <g transform="translate(20 28)">
      <ellipse cx="60" cy="50" rx="44" ry="24" fill="#f8fafc"/>
      <ellipse cx="60" cy="50" rx="20" ry="20" fill="#f59e0b"/>
      <circle cx="60" cy="50" r="10" fill="#1f2937"/>
      <circle cx="64" cy="46" r="3" fill="#f8fafc"/>
      <path d="M17 56c13 17 30 28 43 28" stroke="#7c2d12" stroke-width="6" stroke-linecap="round"/>
      <path d="M103 56c-13 17-30 28-43 28" stroke="#7c2d12" stroke-width="6" stroke-linecap="round"/>
    </g>
  </g>
</svg>